<svg width="74" height="74" viewBox="0 0 74 74" fill="none" xmlns="http://www.w3.org/2000/svg">
<rect x="4.84766" y="4.02368" width="65" height="65" rx="32.5" fill="#B1D7D8"/>
<rect x="4.84766" y="4.02368" width="65" height="65" rx="32.5" stroke="#E0EFEF" stroke-width="8"/>
<path d="M40.5221 22.8333H29.1888C28.4374 22.8333 27.7167 23.1318 27.1853 23.6632C26.654 24.1946 26.3555 24.9152 26.3555 25.6667V48.3333C26.3555 49.0848 26.654 49.8055 27.1853 50.3368C27.7167 50.8682 28.4374 51.1667 29.1888 51.1667H46.1888C46.9402 51.1667 47.6609 50.8682 48.1923 50.3368C48.7236 49.8055 49.0221 49.0848 49.0221 48.3333V31.3333M40.5221 22.8333L49.0221 31.3333M40.5221 22.8333V31.3333H49.0221M43.3555 38.4167H32.0221M43.3555 44.0833H32.0221M34.8555 32.75H32.0221" stroke="#006766" stroke-width="2" stroke-linecap="round" stroke-linejoin="round"/>
</svg>
